<svg xmlns="http://www.w3.org/2000/svg" viewBox="0 0 1000 620">
<rect width="1000" height="620" fill="#0b1411"/>
<g stroke="#668574" fill="none" stroke-width="4">
 <path d="M80 500H300V410H420V325H545V245H690V170H910"/>
 <path d="M420 325V120H575" stroke-dasharray="12 10"/>
 <path d="M545 245V485H760" stroke-dasharray="12 10"/>
 <path d="M690 170V410H920" stroke-dasharray="12 10"/>
</g>
<g stroke="#345445" fill="#102019" stroke-width="3">
 <rect x="55" y="455" width="120" height="90"/><rect x="245" y="365" width="120" height="90"/><rect x="375" y="280" width="125" height="90"/>
 <rect x="500" y="200" width="125" height="90"/><rect x="635" y="125" width="125" height="90"/><rect x="735" y="280" width="130" height="100"/><rect x="825" y="80" width="130" height="110"/>
 <rect x="375" y="65" width="120" height="90"/><rect x="635" y="430" width="125" height="95"/><rect x="830" y="420" width="120" height="95"/>
</g>
<g fill="#aac7b5" font-family="Consolas,monospace" font-size="22" font-weight="700">
 <text x="78" y="510">EXIT</text><text x="270" y="420">S1</text><text x="401" y="335">B12</text><text x="530" y="255">S2</text><text x="664" y="180">B15</text><text x="754" y="335">EQUIP</text><text x="853" y="140">B17</text>
 <text x="401" y="120" fill="#6e8377">B13</text><text x="674" y="485" fill="#6e8377">G2</text><text x="850" y="475" fill="#6e8377">STAIR</text>
</g>
<g fill="#d1a43b"><circle cx="115" cy="485" r="7"/><circle cx="305" cy="395" r="7"/><circle cx="440" cy="310" r="7"/><circle cx="565" cy="230" r="7"/><circle cx="700" cy="155" r="7"/><circle cx="800" cy="315" r="7"/><circle cx="890" cy="115" r="7"/></g>
<text x="55" y="590" fill="#789787" font-family="Consolas,monospace" font-size="16">B-ZONE / MAINTENANCE PLAN / CACHE COPY / NOT FOR PARTICIPANTS</text>
</svg>
